<svg xmlns="http://www.w3.org/2000/svg" xmlns:xlink="http://www.w3.org/1999/xlink" viewBox="0 0 128 128"><defs><style>.cls-1,.cls-6,.cls-8{fill:none;}.cls-2{fill:#80effe;}.cls-3{fill:#2d1582;}.cls-4{fill:#6c5ba7;}.cls-5{fill:#fff;}.cls-6{stroke:#42c5f4;stroke-width:0.69px;}.cls-6,.cls-8{stroke-miterlimit:10;}.cls-7{fill:#42c5f4;}.cls-8{stroke:#fff;stroke-linecap:round;stroke-width:1.37px;}.cls-9{clip-path:url(#clip-path);}.cls-10{fill:#fa9f72;}.cls-11{fill:url(#Безымянный_градиент_29);}.cls-12{fill:url(#Безымянный_градиент_29-2);}.cls-13{fill:#fbb792;}.cls-14{clip-path:url(#clip-path-2);}.cls-15{fill:#c4c4c4;}.cls-16{fill:#99664f;}.cls-17{fill:#754e3d;}.cls-18{clip-path:url(#clip-path-3);}.cls-19{fill:url(#Безымянный_градиент_29-3);}.cls-20{fill:url(#Безымянный_градиент_48);}.cls-21{fill:url(#Безымянный_градиент_157);}.cls-22{clip-path:url(#clip-path-4);}.cls-23{fill:#ffcd83;}.cls-24{fill:#ffc063;}.cls-25{fill:#1f1844;}.cls-26{fill:url(#Безымянный_градиент_263);}.cls-27{clip-path:url(#clip-path-5);}.cls-28{fill:url(#Безымянный_градиент_123);}.cls-29{fill:url(#Безымянный_градиент_48-2);}.cls-30{fill:#201f4f;}.cls-31{fill:url(#Безымянный_градиент_139);}.cls-32{clip-path:url(#clip-path-6);}.cls-33{fill:url(#Безымянный_градиент_123-2);}.cls-34{fill:url(#Безымянный_градиент_48-3);}.cls-35{clip-path:url(#clip-path-7);}.cls-36{fill:url(#Безымянный_градиент_48-4);}.cls-37{clip-path:url(#clip-path-8);}.cls-38{fill:#ef3574;}</style><clipPath id="clip-path"><path class="cls-1" d="M50.74,41.7a6.62,6.62,0,0,1-6.47,6,5.4,5.4,0,0,1-5.45-6,6.62,6.62,0,0,1,6.47-6A5.4,5.4,0,0,1,50.74,41.7Z"/></clipPath><linearGradient id="Безымянный_градиент_29" x1="29.74" y1="41.25" x2="37.28" y2="41.25" gradientTransform="matrix(1, 0, -0.09, 1, 14.99, -0.58)" gradientUnits="userSpaceOnUse"><stop offset="0.28" stop-color="#201f4f"/><stop offset="1" stop-color="#201f4f"/></linearGradient><linearGradient id="Безымянный_градиент_29-2" x1="30.26" y1="40.06" x2="34.73" y2="40.06" xlink:href="#Безымянный_градиент_29"/><clipPath id="clip-path-2"><path class="cls-1" d="M70.2,41.7a6.62,6.62,0,0,1-6.47,6,5.4,5.4,0,0,1-5.45-6,6.62,6.62,0,0,1,6.47-6A5.4,5.4,0,0,1,70.2,41.7Z"/></clipPath><clipPath id="clip-path-3"><path class="cls-1" d="M89.65,41.7a6.62,6.62,0,0,1-6.47,6,5.4,5.4,0,0,1-5.45-6,6.62,6.62,0,0,1,6.47-6A5.4,5.4,0,0,1,89.65,41.7Z"/></clipPath><linearGradient id="Безымянный_градиент_29-3" x1="67.73" y1="43.63" x2="74.93" y2="40.29" xlink:href="#Безымянный_градиент_29"/><linearGradient id="Безымянный_градиент_48" x1="-5444.13" y1="1160.75" x2="-5445.98" y2="1162.56" gradientTransform="matrix(0.96, 0.21, -0.3, 0.98, 5649.79, 65.68)" gradientUnits="userSpaceOnUse"><stop offset="0" stop-color="#a04400"/><stop offset="1" stop-color="#753200"/></linearGradient><linearGradient id="Безымянный_градиент_157" x1="-5444.13" y1="1159.46" x2="-5444.37" y2="1159.69" gradientTransform="matrix(0.96, 0.21, -0.3, 0.98, 5649.79, 65.68)" gradientUnits="userSpaceOnUse"><stop offset="0" stop-color="#a96e46"/><stop offset="1" stop-color="#ffd0b9"/></linearGradient><clipPath id="clip-path-4"><path class="cls-1" d="M109.11,41.7a6.62,6.62,0,0,1-6.47,6,5.4,5.4,0,0,1-5.45-6,6.62,6.62,0,0,1,6.47-6A5.4,5.4,0,0,1,109.11,41.7Z"/></clipPath><linearGradient id="Безымянный_градиент_263" x1="89.98" y1="45.04" x2="94.54" y2="45.04" gradientTransform="matrix(1, 0, -0.09, 1, 14.99, -0.58)" gradientUnits="userSpaceOnUse"><stop offset="0" stop-color="#f0f2f5"/><stop offset="0.99" stop-color="#f5f7f8"/></linearGradient><clipPath id="clip-path-5"><path class="cls-1" d="M48.72,65.55a6.62,6.62,0,0,1-6.47,6,5.4,5.4,0,0,1-5.45-6,6.62,6.62,0,0,1,6.47-6A5.4,5.4,0,0,1,48.72,65.55Z"/></clipPath><linearGradient id="Безымянный_градиент_123" x1="4232.34" y1="64.62" x2="4237.48" y2="62.24" gradientTransform="matrix(-1, 0, -0.09, 1, 4284.45, -0.58)" gradientUnits="userSpaceOnUse"><stop offset="0" stop-color="#753200"/><stop offset="1" stop-color="#a04400"/></linearGradient><linearGradient id="Безымянный_градиент_48-2" x1="-6294.08" y1="1369.78" x2="-6295.91" y2="1371.58" gradientTransform="matrix(0.96, 0.21, -0.3, 0.98, 6485.59, 65.68)" xlink:href="#Безымянный_градиент_48"/><linearGradient id="Безымянный_градиент_139" x1="4234.09" y1="69.72" x2="4237.21" y2="69.72" gradientTransform="matrix(-1, 0, -0.09, 1, 4284.45, -0.58)" gradientUnits="userSpaceOnUse"><stop offset="0" stop-color="#201f4f"/><stop offset="0.26" stop-color="#27275a"/><stop offset="0.72" stop-color="#393c76"/><stop offset="1" stop-color="#464b8b"/></linearGradient><clipPath id="clip-path-6"><path class="cls-1" d="M68.18,65.55a6.62,6.62,0,0,1-6.47,6,5.4,5.4,0,0,1-5.45-6,6.62,6.62,0,0,1,6.47-6A5.4,5.4,0,0,1,68.18,65.55Z"/></clipPath><linearGradient id="Безымянный_градиент_123-2" x1="-173.73" y1="64.92" x2="-168.28" y2="62.4" gradientTransform="matrix(-1, 0, -0.09, 1, -101.51, -0.58)" xlink:href="#Безымянный_градиент_123"/><linearGradient id="Безымянный_градиент_48-3" x1="-1988.86" y1="433.14" x2="-1990.81" y2="435.05" gradientTransform="matrix(0.96, 0.21, -0.3, 0.98, 2099.63, 65.68)" xlink:href="#Безымянный_градиент_48"/><clipPath id="clip-path-7"><path class="cls-1" d="M87.63,65.55a6.62,6.62,0,0,1-6.47,6,5.4,5.4,0,0,1-5.45-6,6.62,6.62,0,0,1,6.47-6A5.4,5.4,0,0,1,87.63,65.55Z"/></clipPath><linearGradient id="Безымянный_градиент_48-4" x1="-8737.43" y1="1902.04" x2="-8739.33" y2="1903.91" gradientTransform="matrix(0.96, 0.21, -0.3, 0.98, 9024.82, 65.68)" xlink:href="#Безымянный_градиент_48"/><clipPath id="clip-path-8"><path class="cls-1" d="M107.09,65.55a6.62,6.62,0,0,1-6.47,6,5.4,5.4,0,0,1-5.45-6,6.62,6.62,0,0,1,6.47-6A5.4,5.4,0,0,1,107.09,65.55Z"/></clipPath></defs><title>3</title><g id="icon"><path class="cls-2" d="M126.18,107.72c0,3.17-26.82,5.75-64.07,5.75s-60.3-2.57-60.3-5.75S24.87,102,62.12,102,126.18,104.55,126.18,107.72Z"/><path class="cls-3" d="M122.74,24.23,118,88.58a3.69,3.69,0,0,1-3.68,3.4H11a3.68,3.68,0,0,1-3.67-4l4.78-64.35a3.69,3.69,0,0,1,3.67-3.4h103.3A3.69,3.69,0,0,1,122.74,24.23Z"/><path class="cls-4" d="M126,24.23l-4.78,64.35a3.69,3.69,0,0,1-3.67,3.4h-3.26a3.69,3.69,0,0,0,3.68-3.4l4.78-64.35a3.69,3.69,0,0,0-3.67-4h3.26A3.69,3.69,0,0,1,126,24.23Z"/><path class="cls-5" d="M117,23.4H17.67a2.48,2.48,0,0,0-2.47,2.27L10.57,82.55A2.48,2.48,0,0,0,13,85.24h99.34A2.48,2.48,0,0,0,114.85,83l4.63-56.88A2.48,2.48,0,0,0,117,23.4Z"/><path class="cls-2" d="M112.84,25.87H21.46A2.28,2.28,0,0,0,19.18,28L15,78a2.28,2.28,0,0,0,2.27,2.47H108.7A2.28,2.28,0,0,0,111,78.42c.23-2.77,3.92-47.32,4.14-50.08A2.28,2.28,0,0,0,112.84,25.87Z"/><polygon class="cls-2" points="78.23 100.17 52.82 100.17 49.54 91.98 74.95 91.98 78.23 100.17"/><path class="cls-3" d="M80.37,103.78H58.26c0-3.1,2.28-3.6,2.28-3.6H78.23L75,92H78.8l3.63,8.69A2.24,2.24,0,0,1,80.37,103.78Z"/><path class="cls-4" d="M60.53,100.17s-2.28.51-2.28,3.6h-25a3.23,3.23,0,0,1,3.2-3.6Z"/><line class="cls-6" x1="18.98" y1="30.39" x2="114.95" y2="30.39"/><circle class="cls-7" cx="22.05" cy="28.01" r="0.86"/><circle class="cls-5" cx="24.45" cy="28.01" r="0.86"/><circle class="cls-7" cx="26.93" cy="28.01" r="0.86"/><path class="cls-5" d="M30.33,27.46l-.14.59a.91.91,0,0,0,.88,1.12h72.07a.91.91,0,0,0,.88-.71l.13-.59a.91.91,0,0,0-.88-1.11H31.21A.91.91,0,0,0,30.33,27.46Z"/><line class="cls-6" x1="35.24" y1="30.39" x2="31.07" y2="80.78"/><line class="cls-8" x1="20.4" y1="35.23" x2="33.16" y2="35.23"/><line class="cls-8" x1="20" y1="39.67" x2="30.41" y2="39.67"/><line class="cls-8" x1="19.61" y1="44.12" x2="32.37" y2="44.12"/><line class="cls-8" x1="19.22" y1="48.56" x2="25.6" y2="48.56"/><line class="cls-8" x1="18.83" y1="53" x2="31.59" y2="53"/><line class="cls-8" x1="18.44" y1="57.45" x2="31.2" y2="57.45"/><line class="cls-8" x1="18.04" y1="61.89" x2="28.84" y2="61.89"/><line class="cls-8" x1="17.65" y1="66.33" x2="23.64" y2="66.33"/><line class="cls-8" x1="17.26" y1="70.78" x2="28.84" y2="70.78"/><line class="cls-8" x1="16.87" y1="75.22" x2="29.63" y2="75.22"/><path class="cls-5" d="M50,53.92H37.54a1.23,1.23,0,0,1-1.25-1.37l1.43-16.87a1.51,1.51,0,0,1,1.48-1.37H51.61a1.23,1.23,0,0,1,1.25,1.37L51.43,52.56A1.51,1.51,0,0,1,50,53.92Z"/><path class="cls-5" d="M69.41,53.92H57a1.23,1.23,0,0,1-1.25-1.37l1.43-16.87a1.51,1.51,0,0,1,1.48-1.37H71.07a1.23,1.23,0,0,1,1.25,1.37L70.89,52.56A1.51,1.51,0,0,1,69.41,53.92Z"/><path class="cls-5" d="M88.86,53.92H76.45a1.23,1.23,0,0,1-1.25-1.37l1.43-16.87a1.51,1.51,0,0,1,1.48-1.37H90.53a1.23,1.23,0,0,1,1.25,1.37L90.34,52.56A1.51,1.51,0,0,1,88.86,53.92Z"/><path class="cls-5" d="M108.32,53.92H95.91a1.23,1.23,0,0,1-1.25-1.37l1.43-16.87a1.51,1.51,0,0,1,1.48-1.37H110a1.23,1.23,0,0,1,1.25,1.37L109.8,52.56A1.51,1.51,0,0,1,108.32,53.92Z"/><path class="cls-5" d="M47.92,77.92H35.51a1.23,1.23,0,0,1-1.25-1.37l1.43-16.87a1.51,1.51,0,0,1,1.48-1.37H49.58a1.23,1.23,0,0,1,1.25,1.37L49.4,76.55A1.51,1.51,0,0,1,47.92,77.92Z"/><path class="cls-5" d="M67.37,77.92H55a1.23,1.23,0,0,1-1.25-1.37l1.43-16.87a1.51,1.51,0,0,1,1.48-1.37H69a1.23,1.23,0,0,1,1.25,1.37L68.85,76.55A1.51,1.51,0,0,1,67.37,77.92Z"/><path class="cls-5" d="M86.83,77.92H74.42a1.23,1.23,0,0,1-1.25-1.37L74.6,59.68a1.51,1.51,0,0,1,1.48-1.37H88.49a1.23,1.23,0,0,1,1.25,1.37L88.31,76.55A1.51,1.51,0,0,1,86.83,77.92Z"/><path class="cls-5" d="M106.29,77.92H93.87a1.23,1.23,0,0,1-1.25-1.37l1.43-16.87a1.51,1.51,0,0,1,1.48-1.37h12.41a1.23,1.23,0,0,1,1.25,1.37l-1.43,16.87A1.51,1.51,0,0,1,106.29,77.92Z"/><g class="cls-9"><path class="cls-10" d="M45.72,42.5a3.33,3.33,0,0,1-2.06,1.58v-.25A5.84,5.84,0,0,0,45.77,42l0,0a3,3,0,0,0,0,.38Z"/><path class="cls-10" d="M45.61,41.12s.18-.26.31-.08-.08.52-.08.52Z"/><path class="cls-11" d="M45.27,36.4c-1.54-.11-3,.18-3.74,2.17-.15.43-.43,1.68.12,2a1.29,1.29,0,0,0,.25.1c0-.13-.06-.27-.08-.41a2,2,0,0,1,1.59-2.05c.85-.18,2.19-.07,2.51.9a3.16,3.16,0,0,1,0,1.6l.1.05c.1.07-1.77,3.93-1.78,4.09.23.38,3.11.33,3.83.38.63-.61.43-3.08.38-4C48.3,38.56,47.31,36.55,45.27,36.4Z"/><path class="cls-12" d="M46,40.75l-.1-.05a3.16,3.16,0,0,0,0-1.6c-.32-1-1.66-1.08-2.51-.9a2,2,0,0,0-1.59,2.05c0,.14,0,.27.08.41.45.13,1.34.15,2.59-1,.82.78.11,1.7.81,1.27.49-.3.7-.14.87.15A.41.41,0,0,0,46,40.75Z"/><path class="cls-3" d="M49.06,48.47a7.41,7.41,0,0,0-.17-2.08,2.63,2.63,0,0,0-2.44-2c-2.39-.15-4.38-.05-5.18.64-1,.82-1.48,3.45-1.48,3.45C42.78,48.47,49,48.48,49.06,48.47Z"/><path class="cls-13" d="M45.31,41c-.7.43,0-.5-.81-1.27-1.25,1.11-2.14,1.1-2.59,1a2.73,2.73,0,0,1,.08.64,3.64,3.64,0,0,0-.06,1.43,1.67,1.67,0,0,0,1.54,1.1h.2v.48s-.66.77-.3,1.31c.19.29,1,.27,1.32.12a1.48,1.48,0,0,0,1-1.44s.06-.44.09-1.79v-.06a3,3,0,0,1,0-.38l0,0a2.4,2.4,0,0,0,.35-.62.48.48,0,0,0-.13-.54C45.84,40.76,45.64,40.75,45.31,41Z"/></g><g class="cls-14"><path class="cls-15" d="M66.4,48A7.49,7.49,0,0,0,69,47.93s.11-2.52-.57-3.53-6.61-1.54-8,.47a4.88,4.88,0,0,0-.74,2.51l0,.05a2.52,2.52,0,0,0,1,.38s-.15.84-.23,1.43h5.87C66.4,48.94,66.41,48.37,66.4,48Z"/><path class="cls-16" d="M60.75,47.8a2.52,2.52,0,0,1-1-.38l-.53,1.81h1.45C60.68,48.59,60.75,47.8,60.75,47.8Z"/><path class="cls-16" d="M68.91,47.95A7.23,7.23,0,0,1,66.4,48c0,.38,0,1,0,1.22h2.39C68.83,48.73,68.88,48.25,68.91,47.95Z"/><path class="cls-16" d="M65.71,43.75c0-.17.07-.59.15-1.09l.15-1v-.07a3.66,3.66,0,0,1,.09-.44l0,0c.66-.7.74-1.23.49-1.46l-.11-.08h0a3.54,3.54,0,0,0,0-1.52c-.22-1.18-1.36-1.47-2.36-1.39s-2.27.65-2.26,1.76a7.62,7.62,0,0,1,0,1.25,4.37,4.37,0,0,0-.29,1.66,1.93,1.93,0,0,0,1.59,1.52l.22,0,0,.16,0,.13,0,.14a1.58,1.58,0,0,0,0,.4,1,1,0,0,0,.94.79C65.15,44.59,65.66,44.16,65.71,43.75Z"/><path class="cls-17" d="M66,41.69a3.83,3.83,0,0,1-2.59,1.52l0-.13,0-.16a6.72,6.72,0,0,0,2.68-1.76l0,0a3.66,3.66,0,0,0-.09.44Z"/><path class="cls-3" d="M65.67,40.54l0,.28c-.7.22-2.34.93-2.61.92s-.34-.43-.54-.37-.24.29-.37.26a1.71,1.71,0,0,1-.5-.54s0,.7,0,.82a3.51,3.51,0,0,0,.48,1,.28.28,0,0,0,.22.13l.79.07.45-.15a8.52,8.52,0,0,0,2.26-1.23,4,4,0,0,0,.17-.9Z"/><path class="cls-3" d="M65.26,37.61s-.27.42-1.47.5-1.72.29-1.82.68a1.52,1.52,0,0,1,.87-1.95c1.29-.72,3.27-.88,3.73.59.45-.05.72.64.57,1.36A5.68,5.68,0,0,1,66.76,40a.43.43,0,0,0-.58-.35c-.49.15-.47.48-.47.48h-.34l.23-.88A1.56,1.56,0,0,1,65.26,37.61Z"/></g><g class="cls-18"><path class="cls-19" d="M86.83,38.06c-.79-1.7-2.26-1.5-3.12-1.5-2.73,0-2.42,1.73-2.47,2.71C80.3,40.75,81,43,82.58,44.07a2.62,2.62,0,0,1,1,.05c1.68.28,3.43,1.3,4.12-.34A15.17,15.17,0,0,0,86.83,38.06Z"/><path class="cls-20" d="M85.31,42.08A3.33,3.33,0,0,1,83,43.39l0-.12,0-.14a5.84,5.84,0,0,0,2.35-1.51l0,0a3.19,3.19,0,0,0-.09.39Z"/><path class="cls-13" d="M81.52,41.76a1.68,1.68,0,0,0,1.37,1.34l.14,0h.06l0,.14,0,.18,0,.16-1.08,4.59a.2.2,0,0,0,.31.22c.76-.51,2.69-4.29,2.73-4.55,0,0,.11-.39.31-1.57l0-.23V42l0-.14a1.87,1.87,0,0,1,.06-.25c.5-.46.56-.83.5-1.1h0a.52.52,0,0,0-.22-.32c-.23-.15-.36-.1-.44,0a.08.08,0,0,1-.14,0,3.5,3.5,0,0,0-.24-.87c-.2-.44-1.11-.23-1.82-.59-.2-.1-.26-.52-.55-.33a2.34,2.34,0,0,0-.59.86,1.14,1.14,0,0,0-.1.53h0a2.49,2.49,0,0,1,0,.56A3.8,3.8,0,0,0,81.52,41.76Z"/><path class="cls-10" d="M83.06,43.27a4.26,4.26,0,0,0,2.21-1l0-.23V42l0-.14A6.82,6.82,0,0,1,83,43.12h.06Z"/><path class="cls-21" d="M85.39,40.66s.22-.24.32,0-.15.51-.15.51Z"/><path class="cls-5" d="M85,43.78l-1.38,1L82.2,48l-.1,1.15h3.79L86,47.77l.31,1.42h2.11a9.87,9.87,0,0,0-1.65-4.65C86.3,44,85.64,44.07,85,43.78Z"/><path class="cls-5" d="M82.2,48,82.74,45l.2-1.06a5,5,0,0,0-1.14.44,1.83,1.83,0,0,0-.76.89c-.61,1.41-2.15,3.94-2.15,3.94H82.1Z"/><path class="cls-5" d="M85,43.78h0a.58.58,0,0,1,.58.69l0,.15-1.1.36,0,.65L82.2,48l1.26-2.87Z"/></g><g class="cls-22"><path class="cls-23" d="M103.33,44.84a.91.91,0,0,1-.91-.76,1.51,1.51,0,0,1,0-.39l0-.14,0-.13,0-.16-.21,0a1.86,1.86,0,0,1-1.54-1.44,4.19,4.19,0,0,1,.27-1.6,6.06,6.06,0,0,0-.07-1.07,1.72,1.72,0,0,1,.58-1.35c1.28-.65,3.33.14,3.33.14s.67.36.17,1.85c.08,0-.11.26,0,.25a.6.6,0,0,1,.5.12c.24.23.17.74-.46,1.41l0,0a3.51,3.51,0,0,0-.09.43v.07l-.14.94c-.07.48-.11.89-.13,1C104.62,44.44,104.14,44.87,103.33,44.84Z"/><path class="cls-24" d="M104.94,42.07a3.68,3.68,0,0,1-2.48,1.49l0-.13,0-.16-.21,0a26.84,26.84,0,0,0,2.78-1.69l0,0a3.51,3.51,0,0,0-.09.43Z"/><path class="cls-25" d="M102.07,36.43c-1.2.3-1.37,1.68-1,2,.61-1.14.6.91,2.41,0,.34-.17.55.42.64.45.85-.1,1.18-.08.78,1.07l-.26.1a.27.27,0,0,0-.17.21l-.15,1c-.63.23-2.11.94-2.35.93a1,1,0,0,1-.51-.15.7.7,0,0,1-.3.06,1.5,1.5,0,0,1-.47-.5s0,.66,0,.78a3.31,3.31,0,0,0,.42.9.24.24,0,0,0,.19.12l.5,0a1,1,0,0,0,.41-.06l.2-.07a7.87,7.87,0,0,0,2-1.23c.28-.89.08-1.61.43-1.86l.1-.06a.72.72,0,0,1,.34,0c.24,0,.24.34.24.34s.45-1.59.51-2C106.51,36,102.92,36.22,102.07,36.43Z"/><path class="cls-24" d="M105,40.5s.24-.27.35,0-.16.57-.16.57Z"/><path class="cls-3" d="M102.2,46h0c0-.33,0-.64,0-.89a2,2,0,0,0-.32-.89.06.06,0,0,0,0,0s-.29,0-.69.1h0l-.93,2.48.55.51-.44.54s.06.48.15,1.17H102A29.23,29.23,0,0,0,102.2,46Z"/><polygon class="cls-2" points="103.58 44.91 103.31 45.39 102.86 45.39 102.67 44.79 103.19 44.41 103.58 44.91"/><path class="cls-5" d="M105.59,49c-.19-1.28-.24-2.93-.45-3.92h0l-.1-.51-1.12.85-.33-.56-.27.48h0v3L103,49l-.36-1.3h0l.22-2.36h0l-.19-.59-.95-.52A40.69,40.69,0,0,1,102,49Z"/><path class="cls-3" d="M107.93,45.29a6,6,0,0,0-2-.9L105.24,49h3.58A16.18,16.18,0,0,0,107.93,45.29Z"/><path class="cls-3" d="M106.42,47.73l-.58-.51.47-.57L106,44.39c-.35-.06-.52-.1-.74-.12l.07.14-.25.21c0,.14-.91,4.43-.91,4.43h1.94Z"/><path class="cls-3" d="M100.35,47.88l.44-.54-.55-.51.92-2.48a7.79,7.79,0,0,0-2.18.78c-.39.24-1.21,2.06-1.92,3.92h3.44C100.4,48.35,100.35,47.88,100.35,47.88Z"/><polygon class="cls-2" points="103.67 49.05 102.17 49.05 102.89 45.39 103.29 45.39 103.67 49.05"/><path class="cls-26" d="M105.71,44.41l-1.79,1.06-.33-.56-.4-.5-.52.38-.6.94c-.23-.42-.9-1.32-.9-1.39l1.13-.67.9.58,1.64-.78Z"/></g><g class="cls-27"><path class="cls-28" d="M40.64,62.82c0,.1,0,.2,0,.29a2.07,2.07,0,0,1,2-1s0,.12.17.15.28-.19.3,0,0,.46.22.46a.33.33,0,0,1,.36.28c0,.14-.41.65-.23.78s.31.68.31.68.27-1.24.88-.52c0,.13.06.27.09.4a.44.44,0,0,0-.09-.44l-.1-.07a3.67,3.67,0,0,0,.25-1,2.32,2.32,0,0,0,0-.59c-.18-1-1.47-1.32-2.34-1.26A2.05,2.05,0,0,0,40.64,62.82Z"/><path class="cls-29" d="M44.15,65.65a3.3,3.3,0,0,1-2.25,1.3l0-.12,0-.14a5.8,5.8,0,0,0,2.33-1.5l0,0a3.17,3.17,0,0,0-.08.38Z"/><path class="cls-3" d="M38.43,67.84a3.89,3.89,0,0,0,.76,3.8c.44-.6,3.85-5.34,4.62-4.2.16.24,1,4.47,2,4.32s1.86-.11,2-1.88c.1-1.59-1.89-3-.88-5.11.66-1.38-1.11-4.85-3.74-4.71a3,3,0,0,1-1,.28c-2.09,0-3.66,2.39-2.86,5.17C39.44,66,38.5,67.64,38.43,67.84Z"/><path class="cls-23" d="M40.38,65.33a1.67,1.67,0,0,0,1.36,1.33l.13,0h.06l0,.14,0,.18,0,.16-1.07,4.56a.2.2,0,0,0,.31.22c.76-.5,2.67-4.26,2.71-4.51,0,0,.11-.39.31-1.56l0-.23v-.06l0-.13a1.86,1.86,0,0,1,.06-.25l0,0a2.59,2.59,0,0,0,.4-.52.76.76,0,0,0,.08-.54h0a.53.53,0,0,0-.2-.32c-.49-.35-.72.67-.72.67a2.67,2.67,0,0,1-1.94-2.37.88.88,0,0,0-.67.14c-.77.51-.49,1.21-.56,1.64A3.79,3.79,0,0,0,40.38,65.33Z"/><path class="cls-24" d="M41.91,66.83a4.23,4.23,0,0,0,2.2-1l0-.23v-.06l0-.13a6.77,6.77,0,0,1-2.31,1.23h.06Z"/><path class="cls-30" d="M43.93,67.25l-1.37,1-1.42,3.24L41,72.64l5.36-.05C46.54,71,46.8,67.84,43.93,67.25Z"/><path class="cls-30" d="M41,72.64l.1-1.15.76-3.55-.08-.68,0-.15s-.43.3-1.23.82a2.61,2.61,0,0,0-1.05,1.35c-.46,1.37-1.19,3.36-1.19,3.36Z"/><polygon class="cls-31" points="43.92 67.25 44.61 67.25 44.48 68.09 43.39 68.45 43.43 69.1 41.14 71.48 42.55 68.25 43.92 67.25"/></g><g class="cls-32"><path class="cls-15" d="M66.09,70.07c-.16-1.61-2.37-2.51-2.37-2.51l-1.49.32a4.18,4.18,0,0,0-2.51.73,8.41,8.41,0,0,0-1.77,4.14h7.74A8.46,8.46,0,0,0,66.09,70.07Z"/><path class="cls-33" d="M60.36,63c0,.1,0,.21,0,.31a2.2,2.2,0,0,1,2.16-1s0,.12.18.16.3-.21.32,0,0,.49.24.49a.35.35,0,0,1,.38.3c0,.15-.44.69-.25.82s.33.72.33.72.29-1.32.93-.55c0,.14.07.28.09.43a.47.47,0,0,0-.09-.47l-.1-.07A3.89,3.89,0,0,0,64.83,63a2.46,2.46,0,0,0,0-.63c-.19-1.08-1.56-1.4-2.48-1.34A2.18,2.18,0,0,0,60.36,63Z"/><path class="cls-34" d="M64.08,66a3.5,3.5,0,0,1-2.39,1.37l0-.12,0-.15a6.15,6.15,0,0,0,2.47-1.59l0,0a3.36,3.36,0,0,0-.09.41Z"/><path class="cls-3" d="M66,63.74c-.49-.67.18-3.43-3-3.63-4.68-.28-5.17,5.78-3.64,6.76a7.41,7.41,0,0,0,6.33-.31C66.62,66,67,65.05,66,63.74Z"/><path class="cls-16" d="M60.09,65.7a1.77,1.77,0,0,0,1.44,1.41l.14,0h.06l0,.15,0,.19,0,.17-.51,1.59a.21.21,0,0,0,.32.24c.8-.53,2.21-1.27,2.25-1.54,0,0,.11-.41.33-1.66l0-.24V66l0-.14a2,2,0,0,1,.06-.26l0,0a2.75,2.75,0,0,0,.42-.55.79.79,0,0,0,.09-.56h0a.58.58,0,0,0-.22-.35c-.52-.37-.76.71-.76.71s-.49-2.44-2.06-2.51a.93.93,0,0,0-.71.15c-.81.54-.52,1.28-.6,1.74A4,4,0,0,0,60.09,65.7Z"/><path class="cls-17" d="M61.71,67.28l0,.19A3.86,3.86,0,0,0,64,66.28l0-.24V66l0-.14a7.18,7.18,0,0,1-2.45,1.3h.06Z"/><path class="cls-17" d="M64.17,64.54s.23-.25.33,0-.16.54-.16.54Z"/></g><g class="cls-35"><path class="cls-3" d="M85.64,64.62c-.15-1.15-.36-4.19-3.58-4.38-4.68-.28-5.29,7.55-3.75,8.53,1.09.7,4.09,3.59,6,2.37C85.27,70.53,85.86,66.28,85.64,64.62Z"/><path class="cls-36" d="M82.69,66.11a3.43,3.43,0,0,1-2.34,1.34l0-.12,0-.15a6,6,0,0,0,2.42-1.56l0,0a3.29,3.29,0,0,0-.09.4Z"/><path class="cls-13" d="M78.78,65.78a1.73,1.73,0,0,0,1.41,1.38l.14,0h.06l0,.15,0,.19,0,.17-.5,1.56a.2.2,0,0,0,.32.23c.79-.52,2.16-1.25,2.2-1.51,0,0,.11-.4.32-1.62l0-.24v-.06l0-.14a2,2,0,0,1,.06-.26l0,0a2,2,0,0,0,.54-.85.46.46,0,0,0-.09-.46l-.1-.07a5.85,5.85,0,0,1-2.5-1c-.59-.5-1.08-1.88-1.54-.56a1.35,1.35,0,0,0-.07.45c0,.1,0,.19,0,.29v0h0a3.62,3.62,0,0,1,0,.81A3.93,3.93,0,0,0,78.78,65.78Z"/><path class="cls-10" d="M80.36,67.34l0,.19a3.78,3.78,0,0,0,2.31-1.17l0-.24v-.06l0-.14a7,7,0,0,1-2.4,1.27h.06Z"/><path class="cls-10" d="M82.77,64.65s.23-.24.33,0-.16.53-.16.53Z"/><path class="cls-15" d="M84.57,70.2a3.05,3.05,0,0,0-1-1.89,1.53,1.53,0,0,0-1.69-.21l-1.07.5c-.54.12-1.57-.67-2.57.14a8.41,8.41,0,0,0-1.77,4.14h7.74A8.46,8.46,0,0,0,84.57,70.2Z"/></g><g class="cls-37"><path class="cls-15" d="M103,72a7.49,7.49,0,0,0,2.63-.08s.11-2.52-.57-3.53-6.61-1.54-8,.47a4.88,4.88,0,0,0-.74,2.51l0,.05a2.52,2.52,0,0,0,1,.38s-.15.84-.23,1.43H103C103,72.9,103.06,72.33,103,72Z"/><path class="cls-16" d="M97.4,71.75a2.52,2.52,0,0,1-1-.38l-.53,1.81h1.45C97.33,72.55,97.4,71.75,97.4,71.75Z"/><path class="cls-16" d="M105.56,71.9A7.23,7.23,0,0,1,103,72c0,.38,0,1,0,1.22h2.39C105.48,72.69,105.53,72.21,105.56,71.9Z"/><path class="cls-16" d="M102.36,67.71c0-.17.07-.59.15-1.09l.15-1v-.07a3.66,3.66,0,0,1,.09-.44l0,0c.66-.7.74-1.23.49-1.46l-.11-.08h0a3.54,3.54,0,0,0,0-1.52c-.22-1.18-1.36-1.47-2.36-1.39s-2.27.65-2.26,1.76a7.62,7.62,0,0,1,0,1.25,4.37,4.37,0,0,0-.29,1.66,1.93,1.93,0,0,0,1.59,1.52l.22,0,0,.16,0,.13,0,.14a1.58,1.58,0,0,0,0,.4,1,1,0,0,0,.94.79C101.8,68.55,102.31,68.11,102.36,67.71Z"/><path class="cls-17" d="M102.66,65.65a3.83,3.83,0,0,1-2.59,1.52l0-.13,0-.16c.58,0,1.5-.18,2.68-1.76l0,0a3.66,3.66,0,0,0-.09.44Z"/><path class="cls-3" d="M101.91,61.56s-.27.42-1.47.5-1.72.29-1.82.68a1.52,1.52,0,0,1,.87-1.95c1.29-.72,3.27-.88,3.73.59.45-.05.72.64.57,1.36a5.68,5.68,0,0,1-.38,1.19.43.43,0,0,0-.58-.35c-.49.15-.47.48-.47.48H102l.23-.88A1.56,1.56,0,0,1,101.91,61.56Z"/></g><path class="cls-38" d="M47.82,50.8h-8a.8.8,0,0,1-.81-.88h0A1,1,0,0,1,40,49h8a.8.8,0,0,1,.81.88h0A1,1,0,0,1,47.82,50.8Z"/><path class="cls-3" d="M47.61,53.27h-8a.8.8,0,0,1-.81-.88h0a1,1,0,0,1,1-.88h8a.8.8,0,0,1,.81.88h0A1,1,0,0,1,47.61,53.27Z"/><path class="cls-38" d="M67.47,50.8h-8a.8.8,0,0,1-.81-.88h0a1,1,0,0,1,1-.88h8a.8.8,0,0,1,.81.88h0A1,1,0,0,1,67.47,50.8Z"/><path class="cls-3" d="M67.26,53.27h-8a.8.8,0,0,1-.81-.88h0a1,1,0,0,1,1-.88h8a.8.8,0,0,1,.81.88h0A1,1,0,0,1,67.26,53.27Z"/><path class="cls-38" d="M87.12,50.8h-8a.8.8,0,0,1-.81-.88h0a1,1,0,0,1,1-.88h8a.8.8,0,0,1,.81.88h0A1,1,0,0,1,87.12,50.8Z"/><path class="cls-3" d="M86.91,53.27h-8a.8.8,0,0,1-.81-.88h0a1,1,0,0,1,1-.88h8a.8.8,0,0,1,.81.88h0A1,1,0,0,1,86.91,53.27Z"/><path class="cls-38" d="M106.77,50.8h-8a.8.8,0,0,1-.81-.88h0a1,1,0,0,1,1-.88h8a.8.8,0,0,1,.81.88h0A1,1,0,0,1,106.77,50.8Z"/><path class="cls-3" d="M106.56,53.27h-8a.8.8,0,0,1-.81-.88h0a1,1,0,0,1,1-.88h8a.8.8,0,0,1,.81.88h0A1,1,0,0,1,106.56,53.27Z"/><path class="cls-38" d="M45.84,74.23h-8a.8.8,0,0,1-.81-.88h0a1,1,0,0,1,1-.88h8a.8.8,0,0,1,.81.88h0A1,1,0,0,1,45.84,74.23Z"/><path class="cls-3" d="M45.63,76.7h-8a.8.8,0,0,1-.81-.88h0a1,1,0,0,1,1-.88h8a.8.8,0,0,1,.81.88h0A1,1,0,0,1,45.63,76.7Z"/><path class="cls-38" d="M65.48,74.23h-8a.8.8,0,0,1-.81-.88h0a1,1,0,0,1,1-.88h8a.8.8,0,0,1,.81.88h0A1,1,0,0,1,65.48,74.23Z"/><path class="cls-3" d="M65.27,76.7h-8a.8.8,0,0,1-.81-.88h0a1,1,0,0,1,1-.88h8a.8.8,0,0,1,.81.88h0A1,1,0,0,1,65.27,76.7Z"/><path class="cls-38" d="M85.13,74.23h-8a.8.8,0,0,1-.81-.88h0a1,1,0,0,1,1-.88h8a.8.8,0,0,1,.81.88h0A1,1,0,0,1,85.13,74.23Z"/><path class="cls-3" d="M84.92,76.7h-8a.8.8,0,0,1-.81-.88h0a1,1,0,0,1,1-.88h8a.8.8,0,0,1,.81.88h0A1,1,0,0,1,84.92,76.7Z"/><path class="cls-38" d="M104.78,74.23h-8a.8.8,0,0,1-.81-.88h0a1,1,0,0,1,1-.88h8a.8.8,0,0,1,.81.88h0A1,1,0,0,1,104.78,74.23Z"/><path class="cls-3" d="M104.57,76.7h-8a.8.8,0,0,1-.81-.88h0a1,1,0,0,1,1-.88h8a.8.8,0,0,1,.81.88h0A1,1,0,0,1,104.57,76.7Z"/></g></svg>